<?xml version="1.0" encoding="UTF-8" standalone="no"?>
<svg width="700px" height="700px" viewBox="0 0 700 700" version="1.1" xmlns="http://www.w3.org/2000/svg" xmlns:xlink="http://www.w3.org/1999/xlink">
    <!-- Generator: Sketch 45.1 (43504) - http://www.bohemiancoding.com/sketch -->
    <title>Slice</title>
    <desc>Created with Sketch.</desc>
    <defs></defs>
    <g id="Page-1" stroke="none" stroke-width="1" fill="none" fill-rule="evenodd">
        <g id="hamburger-open" transform="translate(7.000000, 150.000000)" fill-rule="nonzero" fill="#FFFFFF">
            <path d="M685.474623,242.245835 L685.683542,242.177534 L667.985675,213.400253 L648.012463,180.924031 L628.671366,143.398928 L626.547354,139.276791 L623.167148,136.09613 L592.427902,107.182248 L564.006855,76.0037351 L560.88378,72.5779958 L556.792446,70.3856834 L519.582061,50.4539878 L483.988121,27.755452 L480.058833,25.2497607 L475.518858,24.2024863 L434.384541,14.7395177 L394.061796,2.20570467 L389.630298,0.824963011 L384.989881,1.00308003 L342.835075,2.63961379 L300.676251,1.00308003 L296.034495,0.824963011 L291.598979,2.20570467 L251.290965,14.7395177 L210.145935,24.2024863 L205.60596,25.2497607 L201.671315,27.755452 L166.093446,50.4539878 L128.888417,70.3696127 L124.791726,72.5619251 L121.668652,75.9930213 L93.236891,107.182248 L62.508358,136.101487 L59.1281525,139.276791 L57.0041405,143.398928 L37.6630435,180.924031 L17.6898318,213.400253 L3.23289076,236.914378 L0.0669612834,241.973972 L0.113834182,241.990043 L0,242.177534 L31.9579421,253.121687 L203.587747,311.916372 L327.910744,354.67249 L297.679064,368.300451 C305.101052,385.909929 322.527057,398.265625 342.829718,398.265625 C362.745343,398.265625 379.825827,386.349195 387.484859,369.283443 C387.610746,369.01158 387.77681,368.771858 387.898679,368.493299 L387.887965,368.493299 C387.918768,368.424999 387.960284,368.367412 387.987068,368.299112 L370.294558,360.321344 L357.760745,354.503748 L653.718904,253.120347 L679.781574,244.195747 L685.500068,242.286012 L685.474623,242.245835 Z M207.626851,284.734108 L206.998755,284.519832 C207.322847,283.594427 207.71524,282.683754 208.154506,281.789151 C211.319097,275.406402 217.345612,269.804421 225.533638,264.996601 L262.62885,290.891868 L297.605406,315.557726 L207.626851,284.734108 Z M352.588655,302.505633 L364.553297,222.235125 C371.447631,223.093569 378.21206,224.396635 384.866672,226.027812 C385.504144,226.205929 386.153668,226.315746 386.787122,226.499219 C374.973812,252.895357 363.851543,277.766117 354.744809,298.137079 L352.588655,302.505633 Z M252.616798,271.546753 L233.806035,258.336631 C240.878485,252.934195 248.301813,248.042004 256.034502,243.709609 C266.590279,256.284938 277.084451,268.787948 287.229086,280.867764 L316.670623,316.258141 L252.616798,271.546753 Z M276.942493,252.853841 L265.267124,238.870986 C272.93553,235.12919 280.877139,231.933797 289.03838,229.312933 C295.363543,243.441763 301.499875,257.170166 307.265241,270.054856 L324.905522,309.990565 C310.266446,292.549829 293.839504,272.985082 276.942493,252.853841 Z M298.897759,226.457704 C306.153684,224.585466 313.572994,223.171244 321.115513,222.235125 L327.214347,263.159183 L332.868557,302.478849 C324.6658,284.132796 314.51313,261.438278 303.688169,237.254541 L298.897759,226.457704 Z M332.122609,227.330879 L331.23872,221.278918 C335.072923,221.027143 338.939267,220.890542 342.831057,220.890542 C346.398754,220.890542 349.935649,221.0325 353.456474,221.24142 C353.79128,221.278918 354.105998,221.25749 354.444822,221.293649 L348.506696,261.135613 L342.730615,298.524115 L332.122609,227.330879 Z M360.586511,309.882088 C370.358841,288.040657 383.117644,259.513811 396.630431,229.31829 C403.848857,231.636489 410.859703,234.47163 417.69645,237.667022 C418.59641,238.111645 419.516458,238.467879 420.411061,238.93393 C410.111076,251.206594 399.88341,263.390869 390.002603,275.165341 L360.586511,309.882088 Z M387.961623,315.379609 L460.133833,264.995261 C468.315163,269.803081 474.347035,275.406402 477.506269,281.787812 C477.946874,282.687772 478.339267,283.598445 478.667377,284.518493 L432.004737,300.506169 L387.961623,315.379609 Z M451.857419,258.415646 L409.405304,288.05137 L368.861586,316.106809 C387.207639,294.256003 408.301782,269.124094 429.634308,243.710948 C436.314366,247.456762 442.7239,251.699429 448.921836,256.250118 C449.891435,256.993388 450.905229,257.641573 451.857419,258.415646 Z" id="Shape"></path>
        </g>
    </g>
</svg>